<svg width="32" height="49" viewBox="0 0 32 49" fill="none" xmlns="http://www.w3.org/2000/svg">
<path d="M31.2537 35.6578C30.7486 43.0208 26.6083 46.7823 22.8075 48.6231C22.7059 48.6749 22.5893 48.6923 22.4763 48.6725C22.3633 48.6527 22.2604 48.5969 22.1841 48.5139C22.1078 48.431 22.0625 48.3257 22.0554 48.2149C22.0483 48.1041 22.0799 47.9942 22.145 47.9028C25.2089 43.1809 23.296 37.4185 19.8264 32.9367C17.6026 29.9052 15.9488 26.5187 14.9409 22.9326C14.9409 22.9326 12.4567 27.4944 8.39917 36.218C7.46612 38.0754 7.0445 40.134 7.17505 42.1949C7.3056 44.2558 7.9839 46.2493 9.14443 47.9828C9.20957 48.0742 9.24112 48.1841 9.23403 48.2949C9.22695 48.4057 9.18163 48.511 9.10533 48.594C9.02903 48.6769 8.92616 48.7328 8.81316 48.7525C8.70015 48.7723 8.58354 48.7549 8.48198 48.7031C5.44329 47.0862 3.03102 44.5581 1.60905 41.5002C0.615377 39.5794 -2.03443 32.2964 4.92131 22.9326C12.6223 12.7684 12.7879 4.28491 12.6223 1.32369C12.614 1.22689 12.6339 1.12977 12.6798 1.04334C12.7256 0.956905 12.7956 0.884608 12.8818 0.834632C12.968 0.784656 13.0669 0.758999 13.1674 0.760566C13.2679 0.762132 13.3659 0.79086 13.4504 0.843495C14.436 1.5921 15.3256 2.45188 16.1002 3.40455C18.8786 7.00992 20.3616 11.3943 20.3233 15.8897C20.2277 17.9165 20.4795 19.9447 21.0685 21.8921C22.3106 25.0134 24.3808 23.6529 24.0496 18.2106C24.0396 18.1048 24.064 17.9987 24.1193 17.9068C24.1746 17.815 24.258 17.7421 24.3581 17.6981C24.4581 17.6541 24.5699 17.6413 24.6778 17.6615C24.7857 17.6816 24.8845 17.7337 24.9604 17.8105C26.1197 18.8509 28.1899 21.1718 29.9288 26.2139C30.9456 29.2612 31.3942 32.4588 31.2537 35.6578Z" fill="#F69334"/>
</svg>
