<svg class="ts-roadmap__curveline" viewBox="0 0 905 3176" fill="none" xmlns="http://www.w3.org/2000/svg">
              <path d="M711.788 1.1748C717.121 42.8415 742.588 148.575 801.788 238.175C875.788 350.175 910.788 518.175 874.788 623.175C838.788 728.175 688.788 819.175 571.788 859.175C454.788 899.175 197.788 931.175 105.788 1031.17C13.7881 1131.17 -8.21193 1299.17 4.78807 1415.17C17.7881 1531.17 73.7881 1731.17 66.7881 1867.17C59.7881 2003.17 96.7881 2211.17 192.788 2259.17C288.788 2307.17 502.788 2277.17 576.788 2268.17C650.788 2259.17 903.788 2271.17 903.788 2516.17C903.788 2761.17 833.788 2830.17 801.788 2958.17C785.841 3021.96 797.264 3105.1 814.349 3174.04" stroke="#43424E" stroke-width="2" stroke-linecap="round" stroke-dasharray="4 8"></path>
            </svg>