<svg width="487" height="268" viewBox="0 0 487 268" fill="none" xmlns="http://www.w3.org/2000/svg">
<path d="M172.128 50.8994L285.293 50.9006L285.293 48.9006L172.128 48.8994L172.128 50.8994ZM314.293 79.9005L314.293 124.744L316.293 124.744L316.293 79.9005L314.293 79.9005ZM345.293 155.744L477.217 155.744L477.217 153.744L345.293 153.744L345.293 155.744ZM314.293 124.744C314.293 141.865 328.172 155.744 345.293 155.744L345.293 153.744C329.277 153.744 316.293 140.76 316.293 124.744L314.293 124.744ZM285.293 50.9006C301.309 50.9007 314.293 63.8844 314.293 79.9005L316.293 79.9005C316.293 62.7798 302.414 48.9007 285.293 48.9006L285.293 50.9006Z" fill="url(#paint0_linear_175_136)"/>
<path d="M202.128 258.743L285.293 258.743L285.293 260.743L202.128 260.743L202.128 258.743ZM314.293 229.743L314.293 184.9L316.293 184.9L316.293 229.743L314.293 229.743ZM345.293 153.9L477.568 153.9L477.568 155.9L345.293 155.9L345.293 153.9ZM314.293 184.9C314.293 167.779 328.172 153.9 345.293 153.9L345.293 155.9C329.277 155.9 316.293 168.884 316.293 184.9L314.293 184.9ZM285.293 258.743C301.309 258.743 314.293 245.759 314.293 229.743L316.293 229.743C316.293 246.864 302.414 260.743 285.293 260.743L285.293 258.743Z" fill="url(#paint1_linear_175_136)"/>
<path d="M83.4281 259.686H0.792725" stroke="url(#paint2_linear_175_136)" stroke-width="2"/>
<path d="M101.184 264.243V254.061H104.619C105.282 254.061 105.834 254.177 106.275 254.409C106.719 254.641 107.052 254.958 107.274 255.359C107.496 255.76 107.607 256.216 107.607 256.726C107.607 257.15 107.536 257.513 107.393 257.815C107.251 258.117 107.057 258.36 106.811 258.546C106.566 258.731 106.293 258.866 105.991 258.948V259.028C106.319 259.051 106.637 259.167 106.946 259.376C107.254 259.581 107.507 259.87 107.706 260.241C107.905 260.612 108.005 261.056 108.005 261.573C108.005 262.087 107.89 262.546 107.662 262.951C107.433 263.352 107.082 263.668 106.608 263.9C106.137 264.129 105.537 264.243 104.808 264.243H101.184ZM102.113 263.408H104.808C105.593 263.408 106.173 263.234 106.548 262.886C106.926 262.538 107.115 262.1 107.115 261.573C107.115 261.186 107.02 260.834 106.831 260.519C106.646 260.201 106.382 259.949 106.041 259.764C105.703 259.578 105.305 259.485 104.848 259.485H102.113V263.408ZM102.113 258.66H104.704C105.105 258.66 105.456 258.577 105.757 258.411C106.059 258.246 106.294 258.017 106.463 257.725C106.632 257.434 106.717 257.101 106.717 256.726C106.717 256.186 106.541 255.747 106.19 255.409C105.839 255.067 105.315 254.897 104.619 254.897H102.113V258.66ZM114.916 261.325V256.607H115.801V264.243H114.916V262.975H114.847C114.668 263.367 114.384 263.693 113.997 263.955C113.609 264.213 113.135 264.343 112.575 264.343C112.088 264.343 111.655 264.237 111.277 264.024C110.899 263.809 110.603 263.494 110.387 263.08C110.172 262.666 110.064 262.157 110.064 261.554V256.607H110.949V261.499C110.949 262.095 111.125 262.576 111.476 262.941C111.827 263.302 112.278 263.483 112.828 263.483C113.173 263.483 113.504 263.4 113.823 263.234C114.141 263.068 114.403 262.826 114.608 262.508C114.814 262.187 114.916 261.792 114.916 261.325ZM118.144 264.243V256.607H119.004V257.78H119.069C119.221 257.396 119.487 257.086 119.864 256.85C120.246 256.612 120.676 256.492 121.157 256.492C121.23 256.492 121.311 256.494 121.401 256.497C121.49 256.501 121.565 256.504 121.624 256.507V257.407C121.585 257.401 121.515 257.391 121.416 257.377C121.316 257.364 121.208 257.358 121.092 257.358C120.695 257.358 120.34 257.442 120.028 257.611C119.72 257.777 119.477 258.007 119.298 258.302C119.119 258.597 119.029 258.934 119.029 259.311V264.243H118.144ZM124.019 259.47V264.243H123.134V256.607H123.995V257.805H124.074C124.253 257.414 124.531 257.101 124.909 256.865C125.29 256.627 125.761 256.507 126.321 256.507C126.835 256.507 127.286 256.615 127.674 256.831C128.065 257.043 128.368 257.356 128.583 257.77C128.802 258.184 128.911 258.693 128.911 259.296V264.243H128.026V259.351C128.026 258.725 127.851 258.229 127.5 257.865C127.151 257.5 126.684 257.318 126.098 257.318C125.696 257.318 125.34 257.404 125.029 257.576C124.717 257.749 124.47 257.997 124.288 258.322C124.109 258.643 124.019 259.026 124.019 259.47ZM137.904 264.382C137.277 264.382 136.731 264.261 136.263 264.019C135.796 263.774 135.433 263.441 135.174 263.02C134.916 262.599 134.787 262.124 134.787 261.593C134.787 261.209 134.865 260.862 135.02 260.554C135.179 260.243 135.408 259.948 135.706 259.669C136.005 259.388 136.366 259.096 136.79 258.794L138.267 257.696C138.618 257.444 138.885 257.197 139.067 256.955C139.253 256.71 139.346 256.41 139.346 256.055C139.346 255.714 139.216 255.409 138.958 255.14C138.703 254.868 138.371 254.733 137.963 254.733C137.678 254.733 137.423 254.804 137.198 254.946C136.976 255.089 136.798 255.274 136.666 255.503C136.537 255.728 136.472 255.965 136.472 256.214C136.472 256.446 136.532 256.68 136.651 256.915C136.77 257.147 136.931 257.392 137.133 257.651C137.335 257.906 137.561 258.188 137.809 258.496L142.463 264.243H141.389L137.332 259.267C136.991 258.849 136.687 258.476 136.422 258.148C136.157 257.817 135.948 257.498 135.796 257.193C135.643 256.885 135.567 256.555 135.567 256.204C135.567 255.77 135.668 255.384 135.87 255.046C136.073 254.704 136.351 254.436 136.706 254.24C137.064 254.045 137.473 253.947 137.934 253.947C138.404 253.947 138.812 254.043 139.157 254.235C139.505 254.428 139.773 254.683 139.962 255.001C140.154 255.319 140.25 255.67 140.25 256.055C140.25 256.516 140.131 256.923 139.892 257.278C139.657 257.633 139.314 257.981 138.863 258.322L137.014 259.704C136.507 260.085 136.159 260.438 135.97 260.763C135.781 261.088 135.686 261.365 135.686 261.593C135.686 261.951 135.779 262.281 135.965 262.583C136.15 262.884 136.407 263.126 136.735 263.309C137.067 263.491 137.446 263.584 137.874 263.587C138.298 263.584 138.698 263.499 139.072 263.333C139.447 263.164 139.781 262.924 140.076 262.612C140.375 262.301 140.613 261.928 140.792 261.494C140.975 261.06 141.081 260.576 141.11 260.042L141.971 260.052C141.957 260.599 141.883 261.063 141.747 261.444C141.614 261.822 141.462 262.134 141.289 262.379C141.117 262.624 140.966 262.821 140.837 262.97C140.801 263.02 140.764 263.07 140.728 263.12C140.691 263.169 140.653 263.219 140.613 263.269C140.282 263.633 139.869 263.91 139.375 264.099C138.885 264.288 138.394 264.382 137.904 264.382ZM147.996 264.243V254.061H148.926V258.73H154.703V254.061H155.632V264.243H154.703V259.565H148.926V264.243H147.996ZM160.281 264.417C159.82 264.417 159.399 264.328 159.018 264.149C158.637 263.966 158.334 263.705 158.108 263.363C157.883 263.018 157.77 262.601 157.77 262.11C157.77 261.733 157.842 261.414 157.984 261.156C158.127 260.897 158.329 260.685 158.591 260.519C158.852 260.354 159.162 260.223 159.52 260.127C159.878 260.031 160.273 259.956 160.704 259.903C161.131 259.85 161.492 259.804 161.787 259.764C162.086 259.724 162.313 259.661 162.468 259.575C162.624 259.489 162.702 259.349 162.702 259.157V258.978C162.702 258.458 162.546 258.049 162.235 257.75C161.927 257.449 161.482 257.298 160.902 257.298C160.352 257.298 159.903 257.419 159.555 257.661C159.21 257.903 158.968 258.188 158.829 258.516L157.989 258.213C158.161 257.795 158.4 257.462 158.705 257.213C159.01 256.961 159.351 256.781 159.729 256.671C160.107 256.559 160.49 256.502 160.878 256.502C161.169 256.502 161.472 256.541 161.787 256.617C162.106 256.693 162.4 256.826 162.672 257.014C162.944 257.2 163.164 257.46 163.333 257.795C163.503 258.126 163.587 258.547 163.587 259.058V264.243H162.702V263.035H162.647C162.541 263.26 162.384 263.479 162.175 263.691C161.966 263.903 161.704 264.077 161.39 264.213C161.075 264.349 160.705 264.417 160.281 264.417ZM160.4 263.607C160.871 263.607 161.279 263.502 161.623 263.294C161.968 263.085 162.233 262.808 162.419 262.463C162.608 262.115 162.702 261.733 162.702 261.315V260.211C162.636 260.274 162.525 260.331 162.369 260.38C162.217 260.43 162.039 260.475 161.837 260.514C161.638 260.551 161.439 260.582 161.24 260.609C161.042 260.635 160.863 260.659 160.704 260.679C160.273 260.732 159.905 260.814 159.6 260.927C159.295 261.04 159.061 261.196 158.899 261.394C158.736 261.59 158.655 261.842 158.655 262.15C158.655 262.614 158.821 262.974 159.152 263.229C159.484 263.481 159.9 263.607 160.4 263.607ZM168.949 256.607V257.377H165.305V256.607H168.949ZM166.443 254.777H167.333V262.25C167.333 262.568 167.388 262.818 167.497 263C167.607 263.179 167.749 263.307 167.925 263.383C168.1 263.456 168.288 263.492 168.487 263.492C168.603 263.492 168.702 263.486 168.785 263.473C168.868 263.456 168.941 263.439 169.004 263.423L169.193 264.223C169.106 264.256 169 264.286 168.874 264.313C168.748 264.343 168.593 264.358 168.407 264.358C168.082 264.358 167.769 264.286 167.467 264.144C167.169 264.001 166.924 263.789 166.732 263.507C166.539 263.226 166.443 262.876 166.443 262.458V254.777ZM173.86 264.402C173.177 264.402 172.582 264.232 172.075 263.89C171.571 263.549 171.18 263.081 170.901 262.488C170.623 261.895 170.484 261.219 170.484 260.46C170.484 259.694 170.625 259.013 170.906 258.416C171.192 257.82 171.586 257.353 172.09 257.014C172.593 256.673 173.178 256.502 173.845 256.502C174.355 256.502 174.817 256.602 175.232 256.801C175.646 256.996 175.987 257.273 176.256 257.631C176.528 257.986 176.698 258.4 176.768 258.874H175.873C175.78 258.443 175.557 258.075 175.202 257.77C174.851 257.462 174.403 257.308 173.86 257.308C173.372 257.308 172.942 257.44 172.567 257.706C172.192 257.967 171.899 258.334 171.687 258.804C171.478 259.272 171.374 259.813 171.374 260.43C171.374 261.05 171.477 261.598 171.682 262.076C171.888 262.55 172.176 262.921 172.547 263.189C172.922 263.458 173.359 263.592 173.86 263.592C174.198 263.592 174.506 263.529 174.784 263.403C175.066 263.274 175.301 263.091 175.49 262.856C175.683 262.621 175.812 262.341 175.878 262.016H176.773C176.707 262.477 176.543 262.888 176.281 263.249C176.022 263.607 175.686 263.889 175.272 264.094C174.861 264.3 174.39 264.402 173.86 264.402ZM179.555 259.47V264.243H178.67V254.061H179.555V257.805H179.634C179.813 257.411 180.09 257.096 180.464 256.86C180.842 256.625 181.319 256.507 181.896 256.507C182.413 256.507 182.867 256.613 183.258 256.826C183.649 257.038 183.954 257.351 184.173 257.765C184.392 258.179 184.501 258.69 184.501 259.296V264.243H183.611V259.351C183.611 258.721 183.436 258.226 183.084 257.865C182.736 257.5 182.266 257.318 181.672 257.318C181.265 257.318 180.902 257.404 180.584 257.576C180.265 257.749 180.014 257.997 179.828 258.322C179.646 258.643 179.555 259.026 179.555 259.47Z" fill="#EDE9FF"/>
<path d="M101.184 264.243V254.061H104.619C105.282 254.061 105.834 254.177 106.275 254.409C106.719 254.641 107.052 254.958 107.274 255.359C107.496 255.76 107.607 256.216 107.607 256.726C107.607 257.15 107.536 257.513 107.393 257.815C107.251 258.117 107.057 258.36 106.811 258.546C106.566 258.731 106.293 258.866 105.991 258.948V259.028C106.319 259.051 106.637 259.167 106.946 259.376C107.254 259.581 107.507 259.87 107.706 260.241C107.905 260.612 108.005 261.056 108.005 261.573C108.005 262.087 107.89 262.546 107.662 262.951C107.433 263.352 107.082 263.668 106.608 263.9C106.137 264.129 105.537 264.243 104.808 264.243H101.184ZM102.113 263.408H104.808C105.593 263.408 106.173 263.234 106.548 262.886C106.926 262.538 107.115 262.1 107.115 261.573C107.115 261.186 107.02 260.834 106.831 260.519C106.646 260.201 106.382 259.949 106.041 259.764C105.703 259.578 105.305 259.485 104.848 259.485H102.113V263.408ZM102.113 258.66H104.704C105.105 258.66 105.456 258.577 105.757 258.411C106.059 258.246 106.294 258.017 106.463 257.725C106.632 257.434 106.717 257.101 106.717 256.726C106.717 256.186 106.541 255.747 106.19 255.409C105.839 255.067 105.315 254.897 104.619 254.897H102.113V258.66ZM114.916 261.325V256.607H115.801V264.243H114.916V262.975H114.847C114.668 263.367 114.384 263.693 113.997 263.955C113.609 264.213 113.135 264.343 112.575 264.343C112.088 264.343 111.655 264.237 111.277 264.024C110.899 263.809 110.603 263.494 110.387 263.08C110.172 262.666 110.064 262.157 110.064 261.554V256.607H110.949V261.499C110.949 262.095 111.125 262.576 111.476 262.941C111.827 263.302 112.278 263.483 112.828 263.483C113.173 263.483 113.504 263.4 113.823 263.234C114.141 263.068 114.403 262.826 114.608 262.508C114.814 262.187 114.916 261.792 114.916 261.325ZM118.144 264.243V256.607H119.004V257.78H119.069C119.221 257.396 119.487 257.086 119.864 256.85C120.246 256.612 120.676 256.492 121.157 256.492C121.23 256.492 121.311 256.494 121.401 256.497C121.49 256.501 121.565 256.504 121.624 256.507V257.407C121.585 257.401 121.515 257.391 121.416 257.377C121.316 257.364 121.208 257.358 121.092 257.358C120.695 257.358 120.34 257.442 120.028 257.611C119.72 257.777 119.477 258.007 119.298 258.302C119.119 258.597 119.029 258.934 119.029 259.311V264.243H118.144ZM124.019 259.47V264.243H123.134V256.607H123.995V257.805H124.074C124.253 257.414 124.531 257.101 124.909 256.865C125.29 256.627 125.761 256.507 126.321 256.507C126.835 256.507 127.286 256.615 127.674 256.831C128.065 257.043 128.368 257.356 128.583 257.77C128.802 258.184 128.911 258.693 128.911 259.296V264.243H128.026V259.351C128.026 258.725 127.851 258.229 127.5 257.865C127.151 257.5 126.684 257.318 126.098 257.318C125.696 257.318 125.34 257.404 125.029 257.576C124.717 257.749 124.47 257.997 124.288 258.322C124.109 258.643 124.019 259.026 124.019 259.47ZM137.904 264.382C137.277 264.382 136.731 264.261 136.263 264.019C135.796 263.774 135.433 263.441 135.174 263.02C134.916 262.599 134.787 262.124 134.787 261.593C134.787 261.209 134.865 260.862 135.02 260.554C135.179 260.243 135.408 259.948 135.706 259.669C136.005 259.388 136.366 259.096 136.79 258.794L138.267 257.696C138.618 257.444 138.885 257.197 139.067 256.955C139.253 256.71 139.346 256.41 139.346 256.055C139.346 255.714 139.216 255.409 138.958 255.14C138.703 254.868 138.371 254.733 137.963 254.733C137.678 254.733 137.423 254.804 137.198 254.946C136.976 255.089 136.798 255.274 136.666 255.503C136.537 255.728 136.472 255.965 136.472 256.214C136.472 256.446 136.532 256.68 136.651 256.915C136.77 257.147 136.931 257.392 137.133 257.651C137.335 257.906 137.561 258.188 137.809 258.496L142.463 264.243H141.389L137.332 259.267C136.991 258.849 136.687 258.476 136.422 258.148C136.157 257.817 135.948 257.498 135.796 257.193C135.643 256.885 135.567 256.555 135.567 256.204C135.567 255.77 135.668 255.384 135.87 255.046C136.073 254.704 136.351 254.436 136.706 254.24C137.064 254.045 137.473 253.947 137.934 253.947C138.404 253.947 138.812 254.043 139.157 254.235C139.505 254.428 139.773 254.683 139.962 255.001C140.154 255.319 140.25 255.67 140.25 256.055C140.25 256.516 140.131 256.923 139.892 257.278C139.657 257.633 139.314 257.981 138.863 258.322L137.014 259.704C136.507 260.085 136.159 260.438 135.97 260.763C135.781 261.088 135.686 261.365 135.686 261.593C135.686 261.951 135.779 262.281 135.965 262.583C136.15 262.884 136.407 263.126 136.735 263.309C137.067 263.491 137.446 263.584 137.874 263.587C138.298 263.584 138.698 263.499 139.072 263.333C139.447 263.164 139.781 262.924 140.076 262.612C140.375 262.301 140.613 261.928 140.792 261.494C140.975 261.06 141.081 260.576 141.11 260.042L141.971 260.052C141.957 260.599 141.883 261.063 141.747 261.444C141.614 261.822 141.462 262.134 141.289 262.379C141.117 262.624 140.966 262.821 140.837 262.97C140.801 263.02 140.764 263.07 140.728 263.12C140.691 263.169 140.653 263.219 140.613 263.269C140.282 263.633 139.869 263.91 139.375 264.099C138.885 264.288 138.394 264.382 137.904 264.382ZM147.996 264.243V254.061H148.926V258.73H154.703V254.061H155.632V264.243H154.703V259.565H148.926V264.243H147.996ZM160.281 264.417C159.82 264.417 159.399 264.328 159.018 264.149C158.637 263.966 158.334 263.705 158.108 263.363C157.883 263.018 157.77 262.601 157.77 262.11C157.77 261.733 157.842 261.414 157.984 261.156C158.127 260.897 158.329 260.685 158.591 260.519C158.852 260.354 159.162 260.223 159.52 260.127C159.878 260.031 160.273 259.956 160.704 259.903C161.131 259.85 161.492 259.804 161.787 259.764C162.086 259.724 162.313 259.661 162.468 259.575C162.624 259.489 162.702 259.349 162.702 259.157V258.978C162.702 258.458 162.546 258.049 162.235 257.75C161.927 257.449 161.482 257.298 160.902 257.298C160.352 257.298 159.903 257.419 159.555 257.661C159.21 257.903 158.968 258.188 158.829 258.516L157.989 258.213C158.161 257.795 158.4 257.462 158.705 257.213C159.01 256.961 159.351 256.781 159.729 256.671C160.107 256.559 160.49 256.502 160.878 256.502C161.169 256.502 161.472 256.541 161.787 256.617C162.106 256.693 162.4 256.826 162.672 257.014C162.944 257.2 163.164 257.46 163.333 257.795C163.503 258.126 163.587 258.547 163.587 259.058V264.243H162.702V263.035H162.647C162.541 263.26 162.384 263.479 162.175 263.691C161.966 263.903 161.704 264.077 161.39 264.213C161.075 264.349 160.705 264.417 160.281 264.417ZM160.4 263.607C160.871 263.607 161.279 263.502 161.623 263.294C161.968 263.085 162.233 262.808 162.419 262.463C162.608 262.115 162.702 261.733 162.702 261.315V260.211C162.636 260.274 162.525 260.331 162.369 260.38C162.217 260.43 162.039 260.475 161.837 260.514C161.638 260.551 161.439 260.582 161.24 260.609C161.042 260.635 160.863 260.659 160.704 260.679C160.273 260.732 159.905 260.814 159.6 260.927C159.295 261.04 159.061 261.196 158.899 261.394C158.736 261.59 158.655 261.842 158.655 262.15C158.655 262.614 158.821 262.974 159.152 263.229C159.484 263.481 159.9 263.607 160.4 263.607ZM168.949 256.607V257.377H165.305V256.607H168.949ZM166.443 254.777H167.333V262.25C167.333 262.568 167.388 262.818 167.497 263C167.607 263.179 167.749 263.307 167.925 263.383C168.1 263.456 168.288 263.492 168.487 263.492C168.603 263.492 168.702 263.486 168.785 263.473C168.868 263.456 168.941 263.439 169.004 263.423L169.193 264.223C169.106 264.256 169 264.286 168.874 264.313C168.748 264.343 168.593 264.358 168.407 264.358C168.082 264.358 167.769 264.286 167.467 264.144C167.169 264.001 166.924 263.789 166.732 263.507C166.539 263.226 166.443 262.876 166.443 262.458V254.777ZM173.86 264.402C173.177 264.402 172.582 264.232 172.075 263.89C171.571 263.549 171.18 263.081 170.901 262.488C170.623 261.895 170.484 261.219 170.484 260.46C170.484 259.694 170.625 259.013 170.906 258.416C171.192 257.82 171.586 257.353 172.09 257.014C172.593 256.673 173.178 256.502 173.845 256.502C174.355 256.502 174.817 256.602 175.232 256.801C175.646 256.996 175.987 257.273 176.256 257.631C176.528 257.986 176.698 258.4 176.768 258.874H175.873C175.78 258.443 175.557 258.075 175.202 257.77C174.851 257.462 174.403 257.308 173.86 257.308C173.372 257.308 172.942 257.44 172.567 257.706C172.192 257.967 171.899 258.334 171.687 258.804C171.478 259.272 171.374 259.813 171.374 260.43C171.374 261.05 171.477 261.598 171.682 262.076C171.888 262.55 172.176 262.921 172.547 263.189C172.922 263.458 173.359 263.592 173.86 263.592C174.198 263.592 174.506 263.529 174.784 263.403C175.066 263.274 175.301 263.091 175.49 262.856C175.683 262.621 175.812 262.341 175.878 262.016H176.773C176.707 262.477 176.543 262.888 176.281 263.249C176.022 263.607 175.686 263.889 175.272 264.094C174.861 264.3 174.39 264.402 173.86 264.402ZM179.555 259.47V264.243H178.67V254.061H179.555V257.805H179.634C179.813 257.411 180.09 257.096 180.464 256.86C180.842 256.625 181.319 256.507 181.896 256.507C182.413 256.507 182.867 256.613 183.258 256.826C183.649 257.038 183.954 257.351 184.173 257.765C184.392 258.179 184.501 258.69 184.501 259.296V264.243H183.611V259.351C183.611 258.721 183.436 258.226 183.084 257.865C182.736 257.5 182.266 257.318 181.672 257.318C181.265 257.318 180.902 257.404 180.584 257.576C180.265 257.749 180.014 257.997 179.828 258.322C179.646 258.643 179.555 259.026 179.555 259.47Z" fill="#EDE9FF"/>
<path d="M139.655 231.182C139.309 236.217 136.473 238.789 133.87 240.047C133.801 240.083 133.721 240.094 133.643 240.081C133.566 240.067 133.496 240.029 133.443 239.973C133.391 239.916 133.36 239.844 133.355 239.768C133.35 239.692 133.372 239.617 133.417 239.555C135.515 236.326 134.205 232.386 131.829 229.322C130.305 227.249 129.173 224.933 128.482 222.481C128.482 222.481 126.781 225.601 124.002 231.565C123.363 232.835 123.074 234.243 123.164 235.652C123.253 237.061 123.718 238.424 124.512 239.609C124.557 239.672 124.579 239.747 124.574 239.823C124.569 239.899 124.538 239.971 124.486 240.027C124.433 240.084 124.363 240.122 124.286 240.136C124.208 240.149 124.128 240.137 124.059 240.102C121.978 238.996 120.325 237.268 119.351 235.177C118.671 233.864 116.856 228.884 121.62 222.481C126.894 215.532 127.008 209.731 126.894 207.706C126.889 207.64 126.902 207.574 126.934 207.515C126.965 207.456 127.013 207.406 127.072 207.372C127.131 207.338 127.199 207.32 127.268 207.321C127.337 207.322 127.404 207.342 127.462 207.378C128.137 207.89 128.746 208.478 129.276 209.129C131.179 211.594 132.195 214.592 132.169 217.666C132.103 219.052 132.276 220.438 132.679 221.77C133.53 223.904 134.948 222.974 134.721 219.253C134.714 219.18 134.731 219.108 134.769 219.045C134.807 218.982 134.864 218.932 134.932 218.902C135.001 218.872 135.077 218.864 135.151 218.877C135.225 218.891 135.293 218.927 135.345 218.979C136.139 219.691 137.557 221.277 138.748 224.725C139.444 226.809 139.751 228.995 139.655 231.182V231.182Z" fill="#E5E0F4"/>
<path d="M160.857 207.321C154.804 207.321 149.587 217.235 149.587 226.262C149.587 235.289 154.857 240.141 160.857 240.141C166.858 240.141 172.128 235.341 172.128 226.262C172.128 217.183 166.91 207.321 160.857 207.321Z" fill="#E5E0F4"/>
<path d="M113.428 49.6855H0.792725" stroke="url(#paint3_linear_175_136)" stroke-width="2"/>
<path d="M135.64 47.2432H134.706C134.636 46.8952 134.51 46.5737 134.328 46.2787C134.149 45.9804 133.924 45.7202 133.652 45.4981C133.38 45.2761 133.072 45.1037 132.727 44.9811C132.382 44.8585 132.01 44.7971 131.609 44.7971C130.966 44.7971 130.379 44.9645 129.849 45.2993C129.322 45.634 128.899 46.1262 128.581 46.7758C128.266 47.4221 128.109 48.2143 128.109 49.1523C128.109 50.0969 128.266 50.8923 128.581 51.5386C128.899 52.1849 129.322 52.6755 129.849 53.0102C130.379 53.3416 130.966 53.5074 131.609 53.5074C132.01 53.5074 132.382 53.4461 132.727 53.3234C133.072 53.2008 133.38 53.0301 133.652 52.8113C133.924 52.5893 134.149 52.3291 134.328 52.0308C134.51 51.7325 134.636 51.4094 134.706 51.0613H135.64C135.558 51.5287 135.402 51.9645 135.173 52.3689C134.948 52.7699 134.659 53.1212 134.308 53.4229C133.96 53.7245 133.559 53.9598 133.105 54.1288C132.651 54.2979 132.152 54.3824 131.609 54.3824C130.753 54.3824 129.994 54.1686 129.332 53.741C128.669 53.3102 128.148 52.7036 127.77 51.9214C127.396 51.1392 127.209 50.2162 127.209 49.1523C127.209 48.0883 127.396 47.1653 127.77 46.3831C128.148 45.6009 128.669 44.996 129.332 44.5684C129.994 44.1376 130.753 43.9221 131.609 43.9221C132.152 43.9221 132.651 44.0067 133.105 44.1757C133.559 44.3414 133.96 44.5767 134.308 44.8817C134.659 45.1833 134.948 45.5346 135.173 45.9356C135.402 46.3367 135.558 46.7725 135.64 47.2432ZM137.64 54.2432V46.6068H138.5V47.7801H138.565C138.717 47.3956 138.983 47.0857 139.36 46.8504C139.742 46.6118 140.173 46.4925 140.653 46.4925C140.726 46.4925 140.807 46.4941 140.897 46.4974C140.986 46.5007 141.061 46.5041 141.12 46.5074V47.4072C141.081 47.4006 141.011 47.3907 140.912 47.3774C140.812 47.3641 140.704 47.3575 140.588 47.3575C140.191 47.3575 139.836 47.442 139.525 47.6111C139.216 47.7768 138.973 48.0071 138.794 48.3021C138.615 48.5971 138.525 48.9335 138.525 49.3113V54.2432H137.64ZM144.763 54.4172C144.303 54.4172 143.882 54.3277 143.501 54.1487C143.119 53.9664 142.816 53.7046 142.591 53.3632C142.365 53.0185 142.253 52.6009 142.253 52.1104C142.253 51.7325 142.324 51.4143 142.466 51.1558C142.609 50.8973 142.811 50.6852 143.073 50.5194C143.335 50.3537 143.645 50.2228 144.003 50.1267C144.361 50.0306 144.755 49.956 145.186 49.903C145.613 49.8499 145.975 49.8035 146.27 49.7638C146.568 49.724 146.795 49.661 146.951 49.5748C147.107 49.4887 147.185 49.3495 147.185 49.1572V48.9782C147.185 48.4579 147.029 48.0486 146.717 47.7503C146.409 47.4487 145.965 47.2979 145.385 47.2979C144.835 47.2979 144.386 47.4188 144.038 47.6608C143.693 47.9027 143.451 48.1878 143.312 48.5159L142.471 48.2126C142.644 47.795 142.882 47.4619 143.187 47.2133C143.492 46.9614 143.834 46.7808 144.212 46.6714C144.589 46.5587 144.972 46.5024 145.36 46.5024C145.652 46.5024 145.955 46.5405 146.27 46.6167C146.588 46.693 146.883 46.8255 147.155 47.0145C147.426 47.2001 147.647 47.4603 147.816 47.795C147.985 48.1264 148.069 48.5474 148.069 49.0578V54.2432H147.185V53.0351H147.13C147.024 53.2604 146.866 53.4792 146.658 53.6913C146.449 53.9034 146.187 54.0774 145.872 54.2133C145.557 54.3492 145.188 54.4172 144.763 54.4172ZM144.883 53.6068C145.353 53.6068 145.761 53.5024 146.106 53.2936C146.45 53.0848 146.716 52.808 146.901 52.4633C147.09 52.1153 147.185 51.7325 147.185 51.3149V50.2112C147.118 50.2742 147.007 50.3305 146.851 50.3802C146.699 50.43 146.522 50.4747 146.319 50.5145C146.121 50.5509 145.922 50.5824 145.723 50.6089C145.524 50.6354 145.345 50.6586 145.186 50.6785C144.755 50.7316 144.387 50.8144 144.082 50.9271C143.777 51.0398 143.544 51.1956 143.381 51.3944C143.219 51.59 143.138 51.8419 143.138 52.1501C143.138 52.6141 143.303 52.9738 143.635 53.229C143.966 53.4809 144.382 53.6068 144.883 53.6068ZM153.566 46.6068V47.3774H149.812V46.6068H153.566ZM150.985 54.2432V45.4882C150.985 45.0772 151.08 44.7309 151.269 44.4491C151.461 44.1674 151.711 43.9536 152.019 43.8078C152.328 43.662 152.654 43.589 152.999 43.589C153.231 43.589 153.423 43.6089 153.576 43.6487C153.731 43.6852 153.854 43.7216 153.943 43.7581L153.685 44.5336C153.619 44.5138 153.537 44.4906 153.441 44.464C153.345 44.4375 153.224 44.4243 153.078 44.4243C152.694 44.4243 152.397 44.532 152.188 44.7474C151.98 44.9629 151.875 45.2711 151.875 45.6721L151.87 54.2432H150.985ZM158.34 46.6068V47.3774H154.695V46.6068H158.34ZM155.834 44.7773H156.724V52.2496C156.724 52.5677 156.778 52.818 156.888 53.0003C156.997 53.1792 157.14 53.3068 157.315 53.3831C157.491 53.456 157.678 53.4925 157.877 53.4925C157.993 53.4925 158.093 53.4858 158.175 53.4726C158.258 53.456 158.331 53.4394 158.394 53.4229L158.583 54.2233C158.497 54.2564 158.391 54.2863 158.265 54.3128C158.139 54.3426 157.983 54.3575 157.798 54.3575C157.473 54.3575 157.16 54.2863 156.858 54.1437C156.56 54.0012 156.314 53.7891 156.122 53.5074C155.93 53.2256 155.834 52.876 155.834 52.4584V44.7773Z" fill="#EDE9FF"/>
<path d="M154.822 26.0531L141.633 12.8668L146.132 8.37059C146.351 8.15027 146.474 7.85211 146.474 7.54131C146.474 7.23052 146.351 6.93236 146.132 6.71204V6.71204L140.404 0.987557C140.186 0.770953 139.891 0.649414 139.583 0.649414C139.276 0.649414 138.98 0.770953 138.762 0.987557L125.228 14.5122C125.011 14.7305 124.889 15.0257 124.889 15.3332C124.889 15.6408 125.011 15.9359 125.228 16.1543L130.952 21.8952C131.171 22.1102 131.466 22.2307 131.773 22.2307C132.08 22.2307 132.375 22.1102 132.594 21.8952L137.494 17.0082L150.681 30.2011C150.953 30.4731 151.276 30.6887 151.632 30.8357C151.988 30.9827 152.369 31.0582 152.754 31.0579C153.139 31.0576 153.52 30.9815 153.875 30.8339C154.231 30.6863 154.554 30.4702 154.825 30.1978C155.097 29.9255 155.313 29.6022 155.46 29.2465C155.607 28.8908 155.683 28.5097 155.682 28.1248C155.682 27.7399 155.606 27.3589 155.458 27.0034C155.311 26.6479 155.095 26.325 154.822 26.0531V26.0531Z" fill="#E5E0F4"/>
<path d="M477.256 150.447V158.721C477.256 159.807 478.474 160.456 479.385 159.854L485.646 155.718C486.462 155.18 486.462 153.99 485.646 153.452L479.385 149.314C478.474 148.712 477.256 149.361 477.256 150.447Z" fill="#E5E0F4"/>
<defs>
<linearGradient id="paint0_linear_175_136" x1="107.215" y1="49.8985" x2="8.55928" y2="49.8985" gradientUnits="userSpaceOnUse">
<stop stop-color="#E5E0F4"/>
<stop offset="1" stop-color="#787882" stop-opacity="0"/>
</linearGradient>
<linearGradient id="paint1_linear_175_136" x1="116.679" y1="259.743" x2="13.7465" y2="259.743" gradientUnits="userSpaceOnUse">
<stop stop-color="#E5E0F4"/>
<stop offset="1" stop-color="#787882" stop-opacity="0"/>
</linearGradient>
<linearGradient id="paint2_linear_175_136" x1="83.428" y1="259.686" x2="6.69562" y2="259.685" gradientUnits="userSpaceOnUse">
<stop stop-color="#E5E0F4"/>
<stop offset="1" stop-color="#E5E0F4" stop-opacity="0"/>
</linearGradient>
<linearGradient id="paint3_linear_175_136" x1="83.428" y1="49.6855" x2="6.69562" y2="49.6853" gradientUnits="userSpaceOnUse">
<stop stop-color="#E5E0F4"/>
<stop offset="1" stop-color="#E5E0F4" stop-opacity="0"/>
</linearGradient>
</defs>
</svg>
